<svg width="40" height="36" viewBox="0 0 40 36" fill="none" xmlns="http://www.w3.org/2000/svg">
<path d="M36.8125 4C36.8125 4 17.475 4 15.9375 4C15.35 4 14.6 2.7625 13.625 1.625C12.7375 0.5875 11.7875 0 11.0625 0C10.125 0 3.525 0 3.525 0C1.5875 0 0 1.1125 0 3.0375V32.3625C0 34.3 1.5875 36 3.525 36H36.8125C38.75 36 40 34.3 40 32.3625V7.1C40 5.1625 38.75 4 36.8125 4ZM3.525 2H9C9 2 9.925 2 10.4125 2C10.9 2 11.4875 2.2 12.2 3.0375C13.7125 4.825 14.1375 6 15.9375 6H36.8125C37.6375 6 38 6.275 38 7.1V10H2V3.0375C2 1.9125 3.2875 2 3.525 2ZM36.8125 34H3.525C2.7125 34 2 33.225 2 32.3625V12H38V32.3625C38 33.1125 37.675 34 36.8125 34Z" fill="#64FFDA"/>
</svg>
