<svg width="40" height="36" fill="none" xmlns="http://www.w3.org/2000/svg"><path d="M36.813 4H15.936c-.587 0-1.337-1.237-2.312-2.375C12.738.587 11.787 0 11.062 0H3.526C1.587 0 0 1.113 0 3.038v29.324C0 34.3 1.587 36 3.525 36h33.288C38.75 36 40 34.3 40 32.362V7.1C40 5.162 38.75 4 36.812 4zM3.525 2h6.887c.488 0 1.075.2 1.788 1.038C13.713 4.825 14.138 6 15.938 6h20.874C37.639 6 38 6.275 38 7.1V10H2V3.037C2 1.913 3.288 2 3.525 2zm33.288 32H3.525C2.712 34 2 33.225 2 32.362V12h36v20.362c0 .75-.325 1.638-1.188 1.638z" fill="#64FFDA"/></svg>